<?xml version="1.0" encoding="UTF-8" standalone="no"?><!DOCTYPE svg PUBLIC "-//W3C//DTD SVG 1.1//EN" "http://www.w3.org/Graphics/SVG/1.1/DTD/svg11.dtd"><svg width="100%" height="100%" viewBox="0 0 159 162" version="1.1" xmlns="http://www.w3.org/2000/svg" xmlns:xlink="http://www.w3.org/1999/xlink" xml:space="preserve" xmlns:serif="http://www.serif.com/" style="fill-rule:evenodd;clip-rule:evenodd;stroke-linecap:square;stroke-miterlimit:1.5;"><rect id="Artboard1" x="0" y="0" width="158.88" height="161.52" style="fill:none;"/><clipPath id="_clip1"><rect x="0" y="0" width="158.88" height="161.52"/></clipPath><g clip-path="url(#_clip1)"><path d="M37.421,71.463c-2.178,-5.908 -3.379,-12.366 -3.379,-19.132c0,-28.087 20.692,-50.891 46.177,-50.891c25.486,0 46.177,22.804 46.177,50.891c0,6.865 -1.236,13.414 -3.475,19.392c18.022,5.982 35.501,13.09 35.501,18.16c0,6.388 -18.325,12.534 -39.203,16.268c13.294,21.118 25.237,41.579 26.79,49.194c2.412,11.828 -43.694,0 -43.694,0c-0,0 -18.579,-23.119 -22.096,-23.119c-3.517,0 -22.095,23.119 -22.095,23.119c-0,0 -46.106,11.828 -43.694,0c1.576,-7.731 13.863,-28.704 27.399,-50.162c-21.509,-4.266 -41.349,-10.896 -41.349,-17.293c-0,-4.832 17.789,-11.09 36.941,-16.427Z" style="fill:#3eba00;stroke:#113400;stroke-opacity:0.58;stroke-width:1px;"/></g></svg>