<?xml version="1.0" encoding="UTF-8" standalone="no"?>
<!DOCTYPE svg PUBLIC "-//W3C//DTD SVG 1.1//EN" "http://www.w3.org/Graphics/SVG/1.1/DTD/svg11.dtd">
<svg width="100%" height="100%" viewBox="0 0 250 114" version="1.1" xmlns="http://www.w3.org/2000/svg" xmlns:xlink="http://www.w3.org/1999/xlink" xml:space="preserve" xmlns:serif="http://www.serif.com/" style="fill-rule:evenodd;clip-rule:evenodd;stroke-linejoin:round;stroke-miterlimit:2;">
    <g id="Page-1" serif:id="Page 1" transform="matrix(0.315657,0,0,0.186275,0,0)">
        <rect x="0" y="0" width="792" height="612" style="fill:none;"/>
        <clipPath id="_clip1">
            <rect x="0" y="0" width="792" height="612"/>
        </clipPath>
        <g clip-path="url(#_clip1)">
            <g id="Layer-1" serif:id="Layer 1" transform="matrix(3.168,0,0,5.36842,12.672,16.1053)">
                <g transform="matrix(1,0,0,1,117.836,51.876)">
                    <path d="M0,2.124C0,1.396 -0.033,0.686 -0.096,0C-0.033,0.686 0,1.396 0,2.124" style="fill:rgb(42,56,144);fill-rule:nonzero;"/>
                </g>
                <g transform="matrix(1,0,0,1,117.032,49.8971)">
                    <path d="M0,-1.791C0.169,-1.23 0.315,-0.631 0.434,0C0.315,-0.631 0.169,-1.23 0,-1.791" style="fill:rgb(42,56,144);fill-rule:nonzero;"/>
                </g>
                <g transform="matrix(1,0,0,1,117.74,53.9995)">
                    <path d="M0,2.125C0.063,1.439 0.096,0.728 0.096,0.001L0.096,0C0.096,0.728 0.063,1.439 0,2.125" style="fill:white;fill-rule:nonzero;"/>
                </g>
                <g transform="matrix(1,0,0,1,117.466,59.8943)">
                    <path d="M0,-1.791C-0.119,-1.16 -0.265,-0.561 -0.434,0C-0.265,-0.561 -0.119,-1.16 0,-1.791" style="fill:white;fill-rule:nonzero;"/>
                </g>
                <g transform="matrix(1,0,0,1,128.565,23.7972)">
                    <path d="M0,12.159L3.139,12.159C3.352,12.159 3.402,12.065 3.422,11.972L5.187,5.133L6.96,11.968C6.982,12.064 7.032,12.159 7.245,12.159L10.375,12.159C10.52,12.159 10.601,12.1 10.645,11.961L13.923,0.14C13.936,0.104 13.942,0.066 13.922,0.037C13.906,0.013 13.872,0 13.831,0L9.795,0C9.583,0 9.532,0.109 9.511,0.203L8.381,6.162L6.844,0.208C6.815,0.114 6.747,0 6.488,0L3.895,0C3.628,0 3.56,0.114 3.53,0.213L2.003,6.162L0.864,0.2C0.843,0.109 0.792,0 0.58,0L-3.456,0C-3.475,0.001 -3.51,0.008 -3.529,0.034C-3.547,0.058 -3.55,0.097 -3.539,0.141L-0.268,11.966C-0.226,12.1 -0.145,12.159 0,12.159" style="fill:rgb(46,48,146);fill-rule:nonzero;"/>
                </g>
                <g transform="matrix(1,0,0,1,143.534,23.1513)">
                    <path d="M0,12.805L3.174,12.805C3.233,12.805 3.314,12.724 3.314,12.665L3.319,6.853L3.39,6.598C3.495,6.242 3.951,5.744 4.634,5.744C5.095,5.744 5.646,5.964 5.646,7.011L5.646,12.665C5.64,12.711 5.646,12.734 5.664,12.755C5.689,12.785 5.73,12.805 5.769,12.805L8.934,12.805C9.008,12.805 9.074,12.726 9.074,12.665L9.074,6.097C9.078,5.132 8.792,4.332 8.247,3.784C7.68,3.215 6.835,2.914 5.804,2.914C4.783,2.914 4.047,3.228 3.552,3.873L3.315,4.183L3.315,0.153C3.311,0.082 3.245,0.013 3.175,0.013L-0.008,0.013C-0.039,0 -0.067,0.032 -0.081,0.044C-0.111,0.073 -0.131,0.116 -0.131,0.153L-0.131,12.665C-0.131,12.74 -0.07,12.805 0,12.805" style="fill:rgb(46,48,146);fill-rule:nonzero;"/>
                </g>
                <g transform="matrix(1,0,0,1,157.466,32.1588)">
                    <path d="M0,-2.023C0,-2.886 0.583,-3.465 1.451,-3.465C2.285,-3.465 2.823,-2.899 2.823,-2.023L2.823,-1.891L0,-1.891L0,-2.023ZM1.513,4.07C3.013,4.07 4.275,3.737 5.263,3.081C5.354,3.018 5.343,2.983 5.335,2.96L4.562,0.728C4.542,0.662 4.524,0.648 4.523,0.648C4.514,0.65 4.499,0.654 4.482,0.663C3.606,1.07 2.659,1.275 1.663,1.275C0.678,1.275 0.017,0.692 0.017,-0.176L0.017,-0.309L5.76,-0.309C5.873,-0.309 5.901,-0.36 5.909,-0.437C5.95,-0.791 5.97,-1.156 5.97,-1.522C5.97,-4.427 4.333,-6.093 1.478,-6.093C-1.541,-6.093 -3.569,-4.047 -3.569,-1.003C-3.569,2.031 -1.527,4.07 1.513,4.07" style="fill:rgb(46,48,146);fill-rule:nonzero;"/>
                </g>
                <g transform="matrix(1,0,0,1,164.794,26.0652)">
                    <path d="M0,9.891L3.174,9.891C3.242,9.891 3.314,9.819 3.314,9.751L3.319,4.211L3.39,3.956C3.507,3.537 4.005,3.103 4.633,3.103C5.095,3.103 5.645,3.323 5.645,4.37L5.645,9.751C5.639,9.797 5.646,9.82 5.664,9.842C5.689,9.871 5.73,9.891 5.768,9.891L8.934,9.891C9.013,9.891 9.074,9.816 9.074,9.751L9.074,3.807C9.074,1.21 7.915,0 5.425,0C4.28,0 3.127,0.398 2.623,0.967L2.479,1.128L2.171,0.348C2.154,0.301 2.121,0.255 2.004,0.255L-0.018,0.255C-0.065,0.255 -0.095,0.259 -0.108,0.271C-0.123,0.286 -0.132,0.321 -0.132,0.369L-0.132,9.751C-0.132,9.826 -0.07,9.891 0,9.891" style="fill:rgb(46,48,146);fill-rule:nonzero;"/>
                </g>
                <g transform="matrix(1,0,0,1,183.437,22.9722)">
                    <path d="M0,21.757L5.631,21.757C5.993,21.757 6.078,21.598 6.114,21.443L9.306,9.067L12.514,21.435C12.551,21.598 12.637,21.757 12.998,21.757L18.614,21.757C18.862,21.757 18.994,21.66 19.069,21.422L24.951,0.215C24.968,0.163 24.984,0.098 24.954,0.055C24.929,0.021 24.877,0 24.813,0L17.573,0C17.214,0 17.128,0.173 17.091,0.342L15.042,11.159L12.251,0.352C12.203,0.194 12.086,0 11.641,0L6.988,0C6.532,0 6.414,0.184 6.359,0.363L3.59,11.159L1.521,0.336C1.486,0.173 1.4,0 1.042,0L-6.199,0C-6.226,0.002 -6.281,0.012 -6.309,0.051C-6.335,0.087 -6.339,0.148 -6.321,0.218L-0.454,21.431C-0.381,21.66 -0.249,21.757 0,21.757" style="fill:rgb(46,48,146);fill-rule:nonzero;"/>
                </g>
                <g transform="matrix(1,0,0,1,213.748,37.944)">
                    <path d="M0,-3.628C0,-5.193 1.058,-6.245 2.632,-6.245C4.145,-6.245 5.122,-5.217 5.122,-3.628L5.122,-3.362L0,-3.362L0,-3.628ZM2.742,7.274C5.428,7.274 7.686,6.679 9.455,5.506C9.6,5.405 9.584,5.356 9.572,5.321L8.185,1.317C8.152,1.211 8.125,1.187 8.125,1.186C8.132,1.197 8.109,1.203 8.083,1.216C6.506,1.948 4.802,2.317 3.01,2.317C1.228,2.317 0.03,1.259 0.03,-0.315L0.03,-0.581L10.361,-0.581C10.544,-0.581 10.587,-0.656 10.601,-0.785C10.673,-1.421 10.709,-2.074 10.709,-2.729C10.709,-7.923 7.782,-10.902 2.679,-10.902C-2.719,-10.902 -6.346,-7.243 -6.346,-1.798C-6.346,3.628 -2.694,7.274 2.742,7.274" style="fill:rgb(46,48,146);fill-rule:nonzero;"/>
                </g>
                <g transform="matrix(1,0,0,1,144.169,65.4289)">
                    <path d="M0,-4.915L-3.75,-4.915L-3.75,-13.325L0,-13.325C2.437,-13.325 4.206,-11.557 4.206,-9.12C4.206,-6.684 2.437,-4.915 0,-4.915M-0.547,-23.37L-15.271,-23.371C-15.363,-23.354 -15.555,-23.149 -15.555,-22.961L-15.555,18.107C-15.555,18.273 -15.333,18.456 -15.238,18.456L-4.097,18.456C-3.783,18.456 -3.631,18.178 -3.629,18.107L-3.629,5.161L-0.547,5.161C9.872,5.161 16.344,-0.311 16.344,-9.12C16.344,-17.91 9.872,-23.37 -0.547,-23.37" style="fill:rgb(46,48,146);fill-rule:nonzero;"/>
                </g>
                <g transform="matrix(1,0,0,1,173.916,83.8836)">
                    <path d="M0,-44.01L-10.991,-44.011L-10.998,-44.011C-11.054,-44.011 -11.125,-43.975 -11.191,-43.913C-11.294,-43.816 -11.337,-43.701 -11.337,-43.662L-11.337,-0.408C-11.337,-0.194 -11.156,0.001 -10.958,0.001L0,0.001C0.16,0.001 0.408,-0.247 0.408,-0.408L0.408,-43.662C0.398,-43.799 0.207,-44.01 0,-44.01" style="fill:rgb(46,48,146);fill-rule:nonzero;"/>
                </g>
                <g transform="matrix(1,0,0,1,197.147,59.9124)">
                    <path d="M0,14.889L-0.156,15.045C-1.321,16.209 -2.542,16.738 -3.702,16.749C-4.865,16.749 -5.756,16.456 -6.345,15.876C-6.822,15.406 -7.075,14.757 -7.075,14.001C-7.075,12.261 -5.775,11.222 -3.598,11.222C-2.444,11.222 -1.287,11.796 -0.156,12.926L0,13.082L0,14.889ZM-3.354,-10.023C-8.528,-10.023 -12.988,-8.861 -16.614,-6.569C-16.886,-6.348 -16.85,-6.206 -16.774,-6.044L-13.226,1.387C-13.202,1.435 -13.143,1.534 -13.064,1.556C-13.006,1.574 -12.919,1.551 -12.826,1.495C-10.527,0.181 -8.208,-0.403 -5.298,-0.403C-2.129,-0.403 0,1.592 0,4.561L0,9.102L-0.989,7.445C-2.078,5.621 -5.139,4.395 -8.606,4.395C-15.475,4.395 -19.796,8.195 -19.882,14.312C-19.923,17.238 -18.947,19.795 -17.061,21.709C-15.023,23.775 -12.021,24.912 -8.606,24.912C-3.904,24.912 -0.439,23.773 1.692,21.527L2.343,20.841L3.066,23.562C3.066,23.779 3.312,23.971 3.505,23.971L11.337,23.971C11.563,23.971 11.745,23.747 11.745,23.562L11.745,7.475C11.745,-4.626 7.088,-10.023 -3.354,-10.023" style="fill:rgb(46,48,146);fill-rule:nonzero;"/>
                </g>
                <g transform="matrix(1,0,0,1,233.042,96.3892)">
                    <path d="M0,-45.619C-0.434,-45.619 -0.543,-45.475 -0.604,-45.191L-5.824,-23.533L-11.142,-45.174C-11.257,-45.478 -11.449,-45.619 -11.808,-45.619L-24.284,-45.619C-24.32,-45.619 -24.387,-45.613 -24.417,-45.57L-24.412,-45.558L-24.416,-45.468L-14.399,-15.115C-14.304,-14.757 -14.133,-14.63 -13.781,-14.63L-8.007,-14.63L-8.164,-13.973C-9.09,-10.105 -10.955,-8.528 -14.601,-8.528C-16.427,-8.528 -18.463,-9.287 -20.654,-10.785C-20.669,-10.759 -20.687,-10.726 -20.705,-10.685L-24.169,-3.729C-24.198,-3.526 -24.142,-3.356 -23.998,-3.213C-21.963,-1.296 -17.852,0 -13.781,0C-5.61,0 -0.951,-3.63 1.8,-12.137L12.423,-45.462C12.445,-45.532 12.455,-45.58 12.458,-45.613C12.429,-45.612 12.363,-45.619 12.263,-45.619L0,-45.619Z" style="fill:rgb(46,48,146);fill-rule:nonzero;"/>
                </g>
                <g transform="matrix(-1,0,0,1,0.9629,64.2964)">
                    <path d="M0,-20.593C2.461,-20.593 4.463,-15.974 4.463,-10.296C4.463,-4.619 2.461,0 0,0C-2.461,0 -4.463,-4.619 -4.463,-10.296C-4.463,-15.974 -2.461,-20.593 0,-20.593" style="fill:rgb(42,56,144);fill-rule:nonzero;"/>
                </g>
                <g transform="matrix(-1,0,0,1,113.128,64.2964)">
                    <path d="M0,-20.593C2.461,-20.593 4.463,-15.974 4.463,-10.296C4.463,-4.619 2.461,0 0,0C-2.461,0 -4.463,-4.619 -4.463,-10.296C-4.463,-15.974 -2.461,-20.593 0,-20.593" style="fill:rgb(42,56,144);fill-rule:nonzero;"/>
                </g>
                <g transform="matrix(1,0,0,1,14.7764,50.6163)">
                    <path d="M0,6.788L0.086,6.883C0.928,7.808 2.045,8.317 3.231,8.317C5.692,8.317 7.694,6.104 7.694,3.384C7.694,0.663 5.692,-1.55 3.231,-1.55C2.042,-1.55 0.923,-1.038 0.08,-0.108L-0.005,-0.014L-0.131,-0.029C-1.493,-0.194 -2.795,-0.535 -4,-1.043C-5.122,-1.516 -6.26,-2.193 -7.457,-3.103C-7.641,-3.243 -7.903,-3.074 -7.834,-2.854C-6.716,0.72 -6.72,6.105 -7.848,9.645C-7.918,9.863 -7.66,10.031 -7.476,9.894C-5.158,8.177 -2.689,7.139 -0.127,6.805L0,6.788Z" style="fill:rgb(42,56,144);fill-rule:nonzero;"/>
                </g>
                <g transform="matrix(1,0,0,1,107.202,60.3695)">
                    <path d="M0,-12.752C0.061,-12.938 -0.144,-13.081 -0.3,-12.963C-2.65,-11.197 -5.157,-10.13 -7.761,-9.79L-7.887,-9.774L-7.973,-9.868C-8.816,-10.793 -9.933,-11.303 -11.119,-11.303C-13.579,-11.303 -15.581,-9.09 -15.581,-6.37C-15.581,-3.649 -13.579,-1.436 -11.119,-1.436C-9.929,-1.436 -8.81,-1.948 -7.968,-2.878L-7.882,-2.972L-7.757,-2.956C-6.395,-2.792 -5.093,-2.451 -3.887,-1.943C-2.728,-1.454 -1.553,-0.748 -0.311,0.208C-0.155,0.329 0.056,0.183 -0.006,-0.004C-1.185,-3.595 -1.183,-9.165 0,-12.752" style="fill:rgb(42,56,144);fill-rule:nonzero;"/>
                </g>
                <g transform="matrix(1,0,0,1,27.5851,58.0576)">
                    <path d="M0,29.697C0.312,28.806 0.104,27.632 -0.62,26.209C-0.751,25.951 -0.911,25.692 -1.066,25.442C-1.232,25.172 -1.405,24.893 -1.544,24.611C-1.784,24.126 -1.835,23.816 -1.716,23.574C-1.594,23.327 -1.307,23.179 -0.725,23.066C0.551,22.815 2.126,22.879 3.647,22.941C4.415,22.972 5.139,22.999 5.799,22.99C7.461,22.963 10.745,22.687 12.51,21.834C12.846,21.671 12.962,21.51 12.958,21.207L8.36,13.216L7.975,13.061L1.758,12.763C1.462,12.737 1.215,12.582 1.075,12.34C0.935,12.097 0.925,11.806 1.047,11.542L3.9,6.003L3.962,5.625L-0.636,-2.368C-0.898,-2.536 -1.107,-2.525 -1.399,-2.333C-2.903,-1.346 -4.771,1.279 -5.55,2.528C-6.004,3.258 -6.426,4.049 -6.834,4.814C-7.445,5.957 -8.076,7.138 -8.84,8.172C-9.207,8.667 -9.554,9.135 -9.987,9.135L-10.002,9.135C-10.291,9.128 -10.564,8.918 -10.861,8.472C-11.034,8.214 -11.188,7.928 -11.336,7.651C-11.47,7.401 -11.609,7.142 -11.76,6.908C-12.639,5.549 -13.557,4.77 -14.49,4.592C-15.135,4.469 -15.798,4.644 -16.456,5.113C-18.635,6.67 -17.819,12.083 -17.367,14.338C-17.31,14.622 -17.228,14.932 -17.149,15.231C-17.041,15.642 -16.928,16.067 -16.873,16.451C-16.78,17.083 -17.181,17.326 -17.568,17.561C-17.682,17.631 -17.8,17.702 -17.907,17.784C-20.769,19.988 -21.311,22.4 -19.519,24.954C-17.713,27.526 -14.681,26.675 -13.461,26.188C-13.287,26.118 -13.103,26.025 -12.926,25.935C-12.729,25.835 -12.525,25.732 -12.331,25.658C-12.23,25.621 -12.13,25.602 -12.032,25.602C-11.846,25.602 -11.664,25.669 -11.488,25.802C-11.163,26.048 -10.819,26.39 -10.487,26.721C-10.257,26.951 -10.019,27.188 -9.796,27.382C-8.088,28.877 -3.851,32.233 -1.432,31.135C-0.699,30.802 -0.218,30.318 0,29.697" style="fill:rgb(140,198,63);fill-rule:nonzero;"/>
                </g>
                <g transform="matrix(1,0,0,1,104.267,69.9779)">
                    <path d="M0,5.864C-0.107,5.782 -0.225,5.71 -0.339,5.641C-0.726,5.406 -1.127,5.163 -1.035,4.531C-0.979,4.147 -0.867,3.723 -0.758,3.313C-0.679,3.012 -0.597,2.702 -0.54,2.418C-0.088,0.163 0.729,-5.25 -1.451,-6.807C-2.109,-7.277 -2.772,-7.452 -3.417,-7.328C-4.35,-7.151 -5.268,-6.371 -6.146,-5.012C-6.297,-4.779 -6.437,-4.52 -6.571,-4.269C-6.719,-3.992 -6.873,-3.707 -7.045,-3.448C-7.342,-3.003 -7.616,-2.792 -7.905,-2.785L-7.919,-2.785C-8.353,-2.785 -8.7,-3.253 -9.066,-3.749C-9.831,-4.782 -10.462,-5.964 -11.072,-7.107C-11.48,-7.871 -11.902,-8.662 -12.357,-9.392C-13.135,-10.642 -15.004,-13.266 -16.508,-14.254C-16.799,-14.445 -17.009,-14.454 -17.271,-14.288L-21.869,-6.296L-21.808,-5.918L-18.957,-0.384C-18.832,-0.115 -18.842,0.177 -18.982,0.419C-19.122,0.662 -19.369,0.816 -19.66,0.843L-25.882,1.141L-26.267,1.296L-30.865,9.287C-30.869,9.59 -30.752,9.751 -30.417,9.913C-28.652,10.767 -25.368,11.042 -23.706,11.07C-23.043,11.079 -22.321,11.051 -21.554,11.021C-20.871,10.993 -20.177,10.965 -19.505,10.965C-18.679,10.965 -17.885,11.007 -17.182,11.145C-16.6,11.259 -16.313,11.406 -16.191,11.654C-16.072,11.895 -16.123,12.205 -16.362,12.69C-16.502,12.973 -16.675,13.253 -16.842,13.523C-16.997,13.773 -17.156,14.031 -17.287,14.288C-18.01,15.712 -18.219,16.885 -17.907,17.777C-17.689,18.398 -17.208,18.882 -16.475,19.215C-14.057,20.318 -9.819,16.956 -8.11,15.462C-7.888,15.268 -7.65,15.031 -7.419,14.801C-7.087,14.47 -6.744,14.128 -6.418,13.882C-6.149,13.678 -5.867,13.631 -5.577,13.738C-5.381,13.811 -5.178,13.915 -4.98,14.015C-4.803,14.105 -4.62,14.197 -4.445,14.267C-3.226,14.754 -0.194,15.606 1.612,13.033C3.404,10.48 2.862,8.067 0,5.864" style="fill:rgb(0,174,239);fill-rule:nonzero;"/>
                </g>
                <g transform="matrix(1,0,0,1,86.3575,49.923)">
                    <path d="M0,-29.683C-0.312,-28.787 -0.097,-27.601 0.642,-26.161C0.768,-25.913 0.923,-25.663 1.073,-25.422C1.238,-25.155 1.409,-24.879 1.547,-24.6C1.784,-24.121 1.83,-23.779 1.691,-23.525C1.48,-23.138 0.895,-23.071 0.275,-23.001C-1.002,-22.855 -2.343,-22.899 -3.637,-22.943C-4.504,-22.971 -5.4,-23.002 -6.257,-22.973C-7.729,-22.924 -10.936,-22.617 -12.542,-21.808C-12.854,-21.651 -12.968,-21.475 -12.954,-21.165L-8.332,-13.187L-7.974,-13.051L-1.755,-12.753C-1.46,-12.726 -1.213,-12.572 -1.073,-12.33C-0.933,-12.087 -0.922,-11.796 -1.044,-11.531L-3.897,-5.993L-3.956,-5.582L0.665,2.396C0.926,2.549 1.124,2.529 1.432,2.32C3.053,1.219 4.934,-1.487 5.79,-2.913C6.129,-3.48 6.466,-4.121 6.822,-4.8C7.529,-6.149 8.261,-7.545 9.117,-8.525C9.506,-8.972 9.778,-9.154 10.052,-9.129C10.321,-9.112 10.564,-8.912 10.864,-8.462C11.039,-8.2 11.194,-7.911 11.345,-7.632C11.484,-7.372 11.628,-7.105 11.786,-6.863C12.657,-5.524 13.569,-4.757 14.497,-4.582C15.144,-4.458 15.803,-4.635 16.458,-5.102C18.62,-6.648 17.831,-11.996 17.391,-14.224C17.333,-14.512 17.247,-14.837 17.164,-15.151C17.043,-15.604 16.918,-16.074 16.868,-16.478C16.826,-16.813 16.926,-17.082 17.165,-17.279C17.326,-17.412 17.518,-17.537 17.704,-17.658C17.87,-17.766 18.042,-17.878 18.189,-17.994C19.22,-18.807 21.474,-21.006 20.148,-23.857C18.833,-26.686 16.471,-27.424 13.134,-26.045C13.008,-25.994 12.887,-25.928 12.77,-25.863C12.374,-25.646 11.961,-25.422 11.461,-25.816C11.158,-26.057 10.846,-26.366 10.545,-26.664C10.325,-26.883 10.097,-27.109 9.879,-27.301C8.152,-28.82 3.874,-32.232 1.434,-31.125C0.699,-30.791 0.217,-30.306 0,-29.683" style="fill:rgb(140,198,63);fill-rule:nonzero;"/>
                </g>
                <g transform="matrix(1,0,0,1,9.3995,38.2319)">
                    <path d="M0,-6.303C0.147,-6.187 0.319,-6.075 0.485,-5.967C0.671,-5.846 0.862,-5.721 1.024,-5.588C1.263,-5.391 1.362,-5.122 1.321,-4.787C1.27,-4.383 1.146,-3.913 1.025,-3.46C0.941,-3.146 0.855,-2.821 0.798,-2.532C0.358,-0.305 -0.431,5.043 1.73,6.589C2.384,7.056 3.043,7.233 3.691,7.109C4.619,6.934 5.531,6.167 6.402,4.828C6.56,4.586 6.705,4.318 6.845,4.058C6.995,3.779 7.15,3.49 7.324,3.229C7.625,2.779 7.867,2.579 8.136,2.562C8.149,2.561 8.161,2.561 8.174,2.561C8.437,2.561 8.7,2.739 9.072,3.166C9.927,4.146 10.659,5.542 11.367,6.891C11.723,7.57 12.059,8.211 12.399,8.778C13.255,10.204 15.136,12.91 16.756,14.011C17.065,14.22 17.262,14.242 17.523,14.087L22.145,6.109L22.086,5.698L19.235,0.165C19.111,-0.105 19.122,-0.396 19.262,-0.639C19.402,-0.881 19.648,-1.035 19.938,-1.061L26.162,-1.36L26.52,-1.496L31.143,-9.474C31.157,-9.784 31.043,-9.96 30.731,-10.117C29.124,-10.926 25.917,-11.233 24.445,-11.282C23.588,-11.311 22.691,-11.281 21.826,-11.252C20.531,-11.207 19.191,-11.163 17.913,-11.31C17.294,-11.38 16.708,-11.447 16.498,-11.834C16.359,-12.088 16.405,-12.429 16.642,-12.909C16.78,-13.188 16.951,-13.464 17.116,-13.731C17.266,-13.972 17.42,-14.222 17.547,-14.47C18.285,-15.91 18.501,-17.095 18.188,-17.992C17.972,-18.615 17.489,-19.1 16.754,-19.434C14.314,-20.545 10.036,-17.129 8.31,-15.61C8.091,-15.418 7.863,-15.192 7.643,-14.973C7.342,-14.675 7.031,-14.366 6.727,-14.125C6.228,-13.729 5.815,-13.953 5.419,-14.172C5.301,-14.237 5.18,-14.303 5.055,-14.354C1.716,-15.732 -0.644,-14.995 -1.96,-12.166C-3.285,-9.315 -1.031,-7.116 0,-6.303" style="fill:rgb(0,174,239);fill-rule:nonzero;"/>
                </g>
                <g transform="matrix(1,0,0,1,45.8839,10.9716)">
                    <path d="M0,1.74C0.29,1.757 0.594,1.747 0.889,1.738C1.205,1.728 1.532,1.718 1.845,1.739C2.386,1.774 2.68,1.885 2.829,2.109C2.982,2.338 2.966,2.66 2.774,3.221C2.353,4.452 1.51,5.783 0.695,7.071C0.285,7.719 -0.102,8.33 -0.423,8.908C-1.23,10.362 -2.633,13.344 -2.776,15.299C-2.803,15.671 -2.722,15.852 -2.458,16L6.761,16.014L7.088,15.757L10.455,10.523C10.626,10.28 10.883,10.143 11.163,10.143C11.443,10.143 11.7,10.28 11.868,10.518L15.238,15.759L15.535,16.001L24.755,16.014C25.031,15.872 25.127,15.685 25.107,15.337C25.004,13.543 23.666,10.611 22.973,9.311C22.568,8.553 22.095,7.793 21.637,7.057C20.952,5.957 20.243,4.819 19.73,3.639C19.482,3.068 19.247,2.528 19.477,2.152C19.627,1.905 19.946,1.774 20.48,1.739C20.79,1.718 21.113,1.73 21.426,1.739C21.71,1.747 22.005,1.756 22.284,1.742C23.901,1.661 25.035,1.256 25.655,0.537C26.086,0.038 26.265,-0.622 26.187,-1.426C25.928,-4.092 20.832,-6.092 18.653,-6.827C18.379,-6.92 18.071,-7.004 17.773,-7.085C17.362,-7.197 16.937,-7.312 16.576,-7.456C15.982,-7.692 15.972,-8.16 15.962,-8.613C15.959,-8.746 15.957,-8.885 15.938,-9.018C15.461,-12.599 13.641,-14.274 10.536,-13.999C7.404,-13.722 6.627,-10.67 6.438,-9.37C6.411,-9.184 6.4,-8.978 6.389,-8.78C6.377,-8.559 6.365,-8.331 6.331,-8.126C6.28,-7.821 6.096,-7.6 5.785,-7.468C5.411,-7.311 4.944,-7.184 4.492,-7.062C4.177,-6.977 3.852,-6.889 3.572,-6.794C1.423,-6.061 -3.604,-4.073 -3.861,-1.426C-3.939,-0.625 -3.761,0.034 -3.332,0.533C-2.716,1.249 -1.595,1.655 0,1.74" style="fill:rgb(236,0,129);fill-rule:nonzero;"/>
                </g>
                <g transform="matrix(1,0,0,1,68.0187,97.022)">
                    <path d="M0,-1.743C-0.276,-1.756 -0.571,-1.748 -0.856,-1.74C-1.17,-1.729 -1.494,-1.72 -1.804,-1.74C-2.337,-1.774 -2.656,-1.906 -2.807,-2.153C-3.037,-2.529 -2.802,-3.069 -2.554,-3.64C-2.041,-4.819 -1.333,-5.956 -0.649,-7.055C-0.19,-7.792 0.284,-8.553 0.688,-9.312C1.382,-10.611 2.721,-13.542 2.823,-15.337C2.843,-15.686 2.748,-15.872 2.472,-16.015L-6.749,-16.001L-7.045,-15.759L-10.413,-10.523C-10.583,-10.281 -10.841,-10.144 -11.121,-10.144C-11.401,-10.144 -11.658,-10.281 -11.826,-10.518L-15.196,-15.758L-15.523,-16.014L-24.742,-16.001C-25.006,-15.852 -25.087,-15.671 -25.06,-15.299C-24.917,-13.345 -23.514,-10.363 -22.707,-8.909C-22.386,-8.331 -21.999,-7.719 -21.589,-7.072C-20.774,-5.784 -19.931,-4.452 -19.51,-3.222C-19.318,-2.661 -19.302,-2.339 -19.455,-2.109C-19.604,-1.886 -19.898,-1.775 -20.438,-1.74C-20.754,-1.719 -21.082,-1.729 -21.399,-1.739C-21.578,-1.744 -21.76,-1.749 -21.94,-1.749C-22.056,-1.749 -22.171,-1.747 -22.284,-1.741C-23.879,-1.656 -25,-1.249 -25.615,-0.534C-26.044,-0.035 -26.223,0.625 -26.145,1.425C-25.888,4.07 -20.861,6.06 -18.712,6.793C-18.433,6.888 -18.108,6.976 -17.794,7.061C-17.341,7.183 -16.874,7.31 -16.499,7.467C-16.187,7.599 -16.004,7.82 -15.953,8.126C-15.919,8.331 -15.906,8.559 -15.895,8.779C-15.884,8.978 -15.873,9.183 -15.846,9.37C-15.657,10.669 -14.88,13.721 -11.748,13.998C-8.644,14.272 -6.822,12.599 -6.345,9.017C-6.327,8.883 -6.324,8.745 -6.321,8.612C-6.312,8.159 -6.301,7.691 -5.708,7.455C-5.348,7.312 -4.925,7.196 -4.516,7.086C-4.216,7.004 -3.906,6.92 -3.63,6.826C-1.452,6.091 3.644,4.091 3.903,1.425C3.981,0.622 3.802,-0.038 3.372,-0.537C2.751,-1.256 1.617,-1.662 0,-1.743" style="fill:rgb(236,0,129);fill-rule:nonzero;"/>
                </g>
                <g transform="matrix(1,0,0,1,69.5449,40.6528)">
                    <path d="M0,26.789C-0.631,25.384 -0.471,23.303 0.357,22.141C1.185,20.979 2.367,21.175 2.998,22.58C3.628,23.985 3.469,26.066 2.641,27.228C1.813,28.39 0.631,28.194 0,26.789M0.357,-1.779C1.185,-2.941 2.367,-2.745 2.998,-1.34C3.628,0.065 3.469,2.146 2.641,3.308C1.813,4.47 0.631,4.273 0,2.869C-0.631,1.464 -0.471,-0.617 0.357,-1.779M1.597,34.18L1.598,34.18C1.824,34.18 2.028,34.063 2.141,33.866L13.792,13.686C13.904,13.493 13.904,13.252 13.792,13.059L2.166,-7.077C2.052,-7.274 1.85,-7.391 1.623,-7.391L1.619,-7.391C1.391,-7.39 1.188,-7.27 1.076,-7.071L-10.42,13.378C-10.528,13.57 -10.527,13.808 -10.416,13.999L1.055,33.866C1.168,34.063 1.371,34.18 1.597,34.18" style="fill:rgb(46,48,146);fill-rule:nonzero;"/>
                </g>
                <g transform="matrix(1,0,0,1,39.431,74.136)">
                    <path d="M0,-15.622C1.544,-14.875 2.797,-13.159 2.797,-11.789C2.797,-10.419 1.544,-9.914 0,-10.661C-1.544,-11.409 -2.796,-13.125 -2.796,-14.495C-2.796,-15.864 -1.544,-16.369 0,-15.622M9.947,-10.297C11.492,-9.55 12.744,-7.834 12.744,-6.464C12.744,-5.094 11.492,-4.589 9.947,-5.337C8.403,-6.084 7.151,-7.8 7.151,-9.17C7.151,-10.539 8.403,-11.044 9.947,-10.297M20.796,-4.972C22.341,-4.225 23.593,-2.509 23.593,-1.139C23.593,0.231 22.341,0.736 20.796,-0.012C19.252,-0.759 18,-2.475 18,-3.845C18,-5.214 19.252,-5.719 20.796,-4.972M3.99,2.407C4.159,2.7 4.474,2.881 4.811,2.881L27.371,2.881C27.714,2.881 28.021,2.704 28.193,2.407C28.364,2.11 28.364,1.755 28.192,1.459L17.092,-17.769C16.925,-18.057 16.614,-18.239 16.281,-18.243L-6.429,-18.503L-6.44,-18.503C-6.781,-18.503 -7.086,-18.328 -7.258,-18.034C-7.433,-17.736 -7.434,-17.379 -7.261,-17.08L3.99,2.407Z" style="fill:rgb(46,48,146);fill-rule:nonzero;"/>
                </g>
                <g transform="matrix(1,0,0,1,46.4803,41.7965)">
                    <path d="M0,0.236C0.549,-1.163 2.247,-2.519 3.792,-2.793C5.337,-3.066 6.144,-2.154 5.595,-0.755C5.046,0.644 3.348,2 1.803,2.274C0.258,2.547 -0.549,1.635 0,0.236M9.313,10.983C9.588,10.999 9.859,10.836 9.997,10.588L21.351,-9.607C21.487,-9.85 21.485,-10.139 21.344,-10.379C21.204,-10.619 20.954,-10.762 20.675,-10.762L-2.338,-10.763C-2.614,-10.763 -2.872,-10.615 -3.009,-10.375L-14.515,9.555C-14.655,9.796 -14.655,10.084 -14.518,10.326C-14.38,10.568 -14.131,10.714 -13.853,10.717L9.313,10.983Z" style="fill:rgb(46,48,146);fill-rule:nonzero;"/>
                </g>
                <g transform="matrix(-0.500019,0.866014,0.866014,0.500019,37.9214,97.4213)">
                    <path d="M8.917,-15.445C11.378,-15.445 13.379,-10.826 13.379,-5.148C13.379,0.529 11.378,5.148 8.917,5.148C6.456,5.147 4.454,0.528 4.455,-5.149C4.455,-10.826 6.456,-15.445 8.917,-15.445" style="fill:rgb(42,56,144);fill-rule:nonzero;"/>
                </g>
                <g transform="matrix(-0.500019,0.866014,0.866014,0.500019,94.0039,0.283452)">
                    <path d="M8.917,-15.445C11.378,-15.445 13.379,-10.826 13.379,-5.148C13.379,0.529 11.378,5.148 8.917,5.148C6.456,5.148 4.454,0.528 4.455,-5.149C4.454,-10.826 6.456,-15.445 8.917,-15.445" style="fill:rgb(42,56,144);fill-rule:nonzero;"/>
                </g>
                <g transform="matrix(1,0,0,1,38.8591,90.9782)">
                    <path d="M0,1.33L0.125,1.303C1.347,1.036 2.347,0.323 2.94,-0.704C4.17,-2.835 3.255,-5.675 0.899,-7.035C-1.457,-8.395 -4.375,-7.768 -5.605,-5.637C-6.2,-4.607 -6.316,-3.382 -5.932,-2.187L-5.893,-2.067L-5.969,-1.965C-6.793,-0.868 -7.739,0.089 -8.782,0.879C-9.753,1.614 -10.908,2.26 -12.295,2.843C-12.508,2.932 -12.492,3.244 -12.267,3.294C-8.613,4.112 -3.952,6.808 -1.45,9.555C-1.296,9.725 -1.022,9.585 -1.048,9.357C-1.376,6.491 -1.041,3.835 -0.049,1.448L0,1.33Z" style="fill:rgb(42,56,144);fill-rule:nonzero;"/>
                </g>
                <g transform="matrix(1,0,0,1,76.5963,25.2709)">
                    <path d="M0,-17.899C-0.13,-18.045 -0.357,-17.939 -0.333,-17.745C0.022,-14.826 -0.308,-12.122 -1.315,-9.697L-1.364,-9.579L-1.489,-9.552C-2.712,-9.285 -3.711,-8.573 -4.304,-7.545C-5.535,-5.414 -4.619,-2.574 -2.263,-1.214C0.092,0.146 3.01,-0.481 4.24,-2.612C4.835,-3.642 4.951,-4.867 4.568,-6.062L4.529,-6.182L4.605,-6.284C5.428,-7.381 6.374,-8.338 7.417,-9.128C8.42,-9.888 9.62,-10.552 11.068,-11.149C11.25,-11.224 11.23,-11.48 11.038,-11.52C7.337,-12.295 2.514,-15.081 0,-17.899" style="fill:rgb(42,56,144);fill-rule:nonzero;"/>
                </g>
                <g transform="matrix(0.500019,0.866014,0.866014,-0.500019,76.1694,97.4208)">
                    <path d="M8.917,-5.148C11.378,-5.148 13.379,-0.529 13.379,5.148C13.38,10.825 11.378,15.445 8.917,15.445C6.456,15.445 4.455,10.826 4.455,5.149C4.455,-0.529 6.456,-5.148 8.917,-5.148" style="fill:rgb(42,56,144);fill-rule:nonzero;"/>
                </g>
                <g transform="matrix(0.500019,0.866014,0.866014,-0.500019,20.0868,0.282952)">
                    <path d="M8.917,-5.148C11.378,-5.148 13.379,-0.529 13.379,5.148C13.38,10.825 11.378,15.444 8.917,15.445C6.456,15.445 4.455,10.826 4.455,5.149C4.455,-0.529 6.456,-5.148 8.917,-5.148" style="fill:rgb(42,56,144);fill-rule:nonzero;"/>
                </g>
                <g transform="matrix(1,0,0,1,81.1281,94.359)">
                    <path d="M0,-5.455L0.039,-5.577C0.419,-6.769 0.302,-7.991 -0.291,-9.018C-1.522,-11.149 -4.439,-11.776 -6.795,-10.416C-9.151,-9.056 -10.067,-6.216 -8.836,-4.085C-8.242,-3.055 -7.239,-2.341 -6.012,-2.076L-5.888,-2.049L-5.839,-1.933C-5.3,-0.671 -4.944,0.627 -4.782,1.925C-4.63,3.133 -4.648,4.457 -4.837,5.949C-4.866,6.178 -4.589,6.321 -4.433,6.151C-1.897,3.395 2.768,0.707 6.398,-0.087C6.622,-0.136 6.638,-0.443 6.428,-0.534C3.782,-1.683 1.649,-3.301 0.078,-5.353L0,-5.455Z" style="fill:rgb(42,56,144);fill-rule:nonzero;"/>
                </g>
                <g transform="matrix(1,0,0,1,26.4398,18.9014)">
                    <path d="M0,-5.147C-0.191,-5.107 -0.213,-4.858 -0.033,-4.781C2.672,-3.629 4.849,-1.992 6.445,0.093L6.523,0.195L6.484,0.316C6.104,1.508 6.221,2.73 6.814,3.758C8.045,5.889 10.962,6.516 13.318,5.156C15.674,3.795 16.589,0.955 15.359,-1.176C14.764,-2.206 13.762,-2.919 12.535,-3.184L12.411,-3.211L12.362,-3.327C11.823,-4.589 11.467,-5.887 11.304,-7.185C11.148,-8.433 11.172,-9.804 11.38,-11.358C11.406,-11.553 11.175,-11.663 11.043,-11.516C8.522,-8.699 3.698,-5.916 0,-5.147" style="fill:rgb(42,56,144);fill-rule:nonzero;"/>
                </g>
            </g>
        </g>
    </g>
</svg>
