<?xml version="1.0" encoding="UTF-8" standalone="no"?>
<!DOCTYPE svg PUBLIC "-//W3C//DTD SVG 1.1//EN" "http://www.w3.org/Graphics/SVG/1.1/DTD/svg11.dtd">
<svg width="100%" height="100%" viewBox="0 0 1436 999" version="1.1" xmlns="http://www.w3.org/2000/svg" xmlns:xlink="http://www.w3.org/1999/xlink" xml:space="preserve" xmlns:serif="http://www.serif.com/" style="fill-rule:evenodd;clip-rule:evenodd;stroke-linejoin:round;stroke-miterlimit:2;">
    <g transform="matrix(1,0,0,1,0,-1287.94)">
        <g id="Artboard1" transform="matrix(0.563137,0,0,0.302727,0,1287.94)">
            <rect x="0" y="0" width="2550" height="3300" style="fill:white;"/>
            <clipPath id="_clip1">
                <rect x="0" y="0" width="2550" height="3300"/>
            </clipPath>
            <g clip-path="url(#_clip1)">
                <g transform="matrix(1.77577,0,0,3.3033,-50.18,62.7628)">
                    <path d="M374,428C369.167,380.333 387.954,311.15 431,281C510,225.667 739.333,122.833 848,96C924.445,77.123 1005.77,135.358 1083,120C1200.33,96.667 1552,-44 1552,-44C1552,-44 1524.33,648.167 1462,844C1421.78,970.359 1287.83,1154.17 1178,1131C1128.74,1120.61 1045.22,1076.84 971.407,984.297C936.627,940.695 915.773,857.496 888.476,810.927C844.539,735.968 803,705 803,705C803,705 713.181,653.252 619.951,617.036C557.06,592.606 488.803,585.598 460,567C414.228,537.446 378.833,475.667 374,428Z" style="fill:rgb(128,255,0);fill-opacity:0.07;"/>
                </g>
                <g transform="matrix(1.77577,0,0,3.3033,0.119839,-85.8859)">
                    <path d="M-65,371C-30.732,316.354 104.774,417.963 169,412C255.167,404 383.667,339.667 453,388C522.333,436.333 498.674,627.922 545,740C596.667,865 806.667,1062.5 763,1138C719.333,1213.5 443.976,1197.77 283,1193C108.667,1187.83 -283,1107 -283,1107C-283,1107 -133.667,480.5 -65,371Z" style="fill:rgb(255,0,213);fill-opacity:0.05;"/>
                </g>
            </g>
        </g>
    </g>
</svg>
